PathFileType	4	(X/Y/Z)	 1.9Hzlow3min.trc
DataRate	CameraRate	NumFrames	NumMarkers	Units	OrigDataRate	OrigDataStartFrame	OrigNumFrames
200	200	10	39	m	200	501	1000
Frame#	Time	C7			LSH			RSH			MAN			RASI			LASI			HIPR			HIPL			RPSI			LPSI			COX			RTHI1			RTHI2			RTHI3			RTHI4			RLKN			RMKN			RSHA1			RSHA2			RSHA3			RSHA4			RHEEL			RMET5			RMET1			RTOE			LTHI1			LTHI2			LTHI3			LTHI4			LLKN			LMKN			LSHA1			LSHA2			LSHA3			LSHA4			LHEEL			LMET5			LMET1			LTOE			
		X1	Y1	Z1	X2	Y2	Z2	X3	Y3	Z3	X4	Y4	Z4	X5	Y5	Z5	X6	Y6	Z6	X7	Y7	Z7	X8	Y8	Z8	X9	Y9	Z9	X10	Y10	Z10	X11	Y11	Z11	X12	Y12	Z12	X13	Y13	Z13	X14	Y14	Z14	X15	Y15	Z15	X16	Y16	Z16	X17	Y17	Z17	X18	Y18	Z18	X19	Y19	Z19	X20	Y20	Z20	X21	Y21	Z21	X22	Y22	Z22	X23	Y23	Z23	X24	Y24	Z24	X25	Y25	Z25	X26	Y26	Z26	X27	Y27	Z27	X28	Y28	Z28	X29	Y29	Z29	X30	Y30	Z30	X31	Y31	Z31	X32	Y32	Z32	X33	Y33	Z33	X34	Y34	Z34	X35	Y35	Z35	X36	Y36	Z36	X37	Y37	Z37	X38	Y38	Z38	X39	Y39	Z39	
501	2.5050	-0.276867	1.423095	-0.528988	-0.222878	1.399823	-0.721978	-0.240436	1.402697	-0.340704	-0.131795	1.366492	-0.530863	-0.174941	0.901316	-0.419251	-0.184835	0.904932	-0.653873	-0.241454	0.971460	-0.362901	-0.238779	0.962952	-0.699229	-0.350967	0.971037	-0.491870	-0.356136	0.970104	-0.559729	-0.354920	0.969761	-0.528103	-0.237960	0.727513	-0.336250	-0.212992	0.673898	-0.329620	-0.152808	0.699315	-0.334568	-0.171915	0.756995	-0.342663	-0.136887	0.424507	-0.365867	-0.119119	0.421252	-0.477328	-0.251202	0.326263	-0.342350	-0.274147	0.292669	-0.356347	-0.219535	0.266110	-0.360919	-0.200971	0.300752	-0.351675	-0.419310	0.071969	-0.455023	-0.260692	0.035189	-0.374835	-0.202260	0.046448	-0.437609	-0.178072	0.036687	-0.434383	-0.243093	0.701125	-0.741363	-0.216786	0.645467	-0.747868	-0.156266	0.668023	-0.748083	-0.173594	0.725554	-0.741213	-0.152066	0.424129	-0.722448	-0.127289	0.416593	-0.618706	-0.275663	0.316381	-0.732433	-0.297001	0.282804	-0.723667	-0.240672	0.254768	-0.724644	-0.226009	0.295156	-0.734069	-0.423385	0.062630	-0.627474	-0.272069	0.036556	-0.729113	-0.209781	0.048185	-0.662539	-0.184554	0.036829	-0.674123	
502	2.5100	-0.276800	1.419037	-0.529270	-0.222409	1.395801	-0.722275	-0.240594	1.398682	-0.341007	-0.131593	1.362409	-0.531080	-0.175748	0.897392	-0.419226	-0.186047	0.900694	-0.654037	-0.243114	0.966969	-0.362565	-0.240573	0.958192	-0.699320	-0.351734	0.967255	-0.491885	-0.356946	0.966297	-0.559696	-0.355702	0.965984	-0.528082	-0.237521	0.723768	-0.336337	-0.212083	0.670389	-0.329808	-0.152117	0.696312	-0.334975	-0.171764	0.753841	-0.342969	-0.133759	0.421863	-0.366479	-0.115786	0.418578	-0.477755	-0.248634	0.324608	-0.342666	-0.271976	0.291255	-0.356654	-0.217631	0.264181	-0.361392	-0.198718	0.298641	-0.352186	-0.419372	0.071229	-0.455268	-0.260698	0.035217	-0.374839	-0.202248	0.046432	-0.437674	-0.178020	0.036680	-0.434432	-0.242443	0.697525	-0.741204	-0.215459	0.642215	-0.747686	-0.155224	0.665524	-0.747981	-0.173260	0.722840	-0.741151	-0.146925	0.422002	-0.722326	-0.123042	0.415067	-0.618274	-0.272098	0.315689	-0.732465	-0.293870	0.282432	-0.723745	-0.237896	0.253645	-0.724730	-0.222720	0.293888	-0.734144	-0.422919	0.063062	-0.627266	-0.271774	0.036545	-0.729087	-0.209367	0.048160	-0.662554	-0.184128	0.036804	-0.674183	
503	2.5150	-0.276746	1.415238	-0.529544	-0.221911	1.392087	-0.722548	-0.240749	1.394993	-0.341329	-0.131395	1.358606	-0.531282	-0.176451	0.893756	-0.419248	-0.187078	0.896792	-0.654201	-0.244532	0.962827	-0.362160	-0.242259	0.953960	-0.699395	-0.352385	0.963743	-0.491793	-0.357646	0.962726	-0.559563	-0.356383	0.962430	-0.527969	-0.237009	0.720299	-0.336378	-0.211139	0.667141	-0.330028	-0.151368	0.693492	-0.335469	-0.171515	0.750881	-0.343334	-0.130830	0.419431	-0.367127	-0.112893	0.416060	-0.478295	-0.246087	0.323049	-0.342861	-0.269844	0.289924	-0.356799	-0.215749	0.262356	-0.361828	-0.196506	0.296651	-0.352678	-0.419488	0.070557	-0.455215	-0.260666	0.035215	-0.374748	-0.202282	0.046425	-0.437728	-0.178013	0.036671	-0.434475	-0.241668	0.694243	-0.741054	-0.213931	0.639336	-0.747562	-0.154020	0.663475	-0.747765	-0.172850	0.720526	-0.740896	-0.141875	0.420170	-0.722280	-0.118818	0.413699	-0.618083	-0.268498	0.315181	-0.732781	-0.290731	0.282251	-0.724120	-0.235108	0.252731	-0.724939	-0.219389	0.292809	-0.734347	-0.422430	0.063592	-0.627126	-0.271438	0.036527	-0.729074	-0.208906	0.048129	-0.662581	-0.183656	0.036791	-0.674241	
504	2.5200	-0.276711	1.411709	-0.529813	-0.221405	1.388694	-0.722810	-0.240892	1.391637	-0.341652	-0.131265	1.355083	-0.531459	-0.177041	0.890412	-0.419322	-0.187907	0.893254	-0.654357	-0.245653	0.959077	-0.361719	-0.243786	0.950270	-0.699463	-0.352928	0.960465	-0.491603	-0.358247	0.959351	-0.559341	-0.356956	0.959073	-0.527770	-0.236416	0.717105	-0.336357	-0.210147	0.664135	-0.330271	-0.150562	0.690864	-0.336026	-0.171163	0.748116	-0.343730	-0.128105	0.417171	-0.367816	-0.110497	0.413737	-0.478971	-0.243612	0.321572	-0.342973	-0.267761	0.288636	-0.356809	-0.213911	0.260614	-0.362262	-0.194348	0.294749	-0.353184	-0.419647	0.069920	-0.454947	-0.260618	0.035202	-0.374594	-0.202354	0.046418	-0.437771	-0.178049	0.036655	-0.434506	-0.240794	0.691275	-0.740943	-0.212262	0.636809	-0.747534	-0.152702	0.661816	-0.747486	-0.172374	0.718569	-0.740520	-0.137100	0.418548	-0.722304	-0.114701	0.412372	-0.618166	-0.264977	0.314708	-0.733288	-0.287654	0.282082	-0.724699	-0.232366	0.251890	-0.725167	-0.216111	0.291788	-0.734587	-0.421973	0.064136	-0.626990	-0.271143	0.036514	-0.729018	-0.208490	0.048103	-0.662598	-0.183218	0.036777	-0.674282	
505	2.5250	-0.276695	1.408470	-0.530079	-0.220914	1.385634	-0.723070	-0.241024	1.388610	-0.341959	-0.131218	1.351844	-0.531616	-0.177522	0.887367	-0.419442	-0.188519	0.890104	-0.654514	-0.246440	0.955746	-0.361282	-0.245100	0.947104	-0.699525	-0.353370	0.957408	-0.491338	-0.358757	0.956155	-0.559050	-0.357429	0.955932	-0.527511	-0.235740	0.714204	-0.336265	-0.209112	0.661373	-0.330507	-0.149703	0.688437	-0.336613	-0.170701	0.745576	-0.344141	-0.125592	0.415081	-0.368533	-0.108632	0.411639	-0.479799	-0.241246	0.320133	-0.343034	-0.265771	0.287323	-0.356807	-0.212145	0.258941	-0.362747	-0.192280	0.292928	-0.353730	-0.419833	0.069295	-0.454574	-0.260562	0.035183	-0.374422	-0.202450	0.046407	-0.437811	-0.178104	0.036642	-0.434530	-0.239855	0.688614	-0.740889	-0.210536	0.634600	-0.747613	-0.151335	0.660466	-0.747217	-0.171854	0.716904	-0.740105	-0.132771	0.417061	-0.722404	-0.110793	0.410998	-0.618525	-0.261662	0.314142	-0.733885	-0.284752	0.281785	-0.725361	-0.229759	0.251016	-0.725342	-0.213019	0.290726	-0.734798	-0.421576	0.064571	-0.626803	-0.270934	0.036510	-0.728933	-0.208159	0.048081	-0.662599	-0.182887	0.036763	-0.674309	
506	2.5300	-0.276698	1.405550	-0.530341	-0.220454	1.382919	-0.723332	-0.241142	1.385916	-0.342245	-0.131222	1.348882	-0.531761	-0.177891	0.884632	-0.419597	-0.188926	0.887360	-0.654671	-0.246906	0.952868	-0.360889	-0.246170	0.944410	-0.699587	-0.353723	0.954581	-0.491032	-0.359164	0.953140	-0.558724	-0.357761	0.952991	-0.527186	-0.234989	0.711616	-0.336103	-0.208037	0.658887	-0.330719	-0.148795	0.686223	-0.337203	-0.170128	0.743269	-0.344549	-0.123308	0.413139	-0.369276	-0.107286	0.409784	-0.480757	-0.239051	0.318688	-0.343097	-0.263889	0.285993	-0.356774	-0.210486	0.257327	-0.363297	-0.190356	0.291169	-0.354327	-0.420038	0.068709	-0.454228	-0.260534	0.035176	-0.374263	-0.202562	0.046398	-0.437863	-0.178175	0.036634	-0.434549	-0.238903	0.686246	-0.740899	-0.208844	0.632671	-0.747783	-0.149990	0.659345	-0.747020	-0.171300	0.715470	-0.739739	-0.129038	0.415647	-0.722577	-0.107185	0.409540	-0.619119	-0.258691	0.313381	-0.734470	-0.282137	0.281260	-0.725979	-0.227392	0.250026	-0.725415	-0.210227	0.289543	-0.734930	-0.421291	0.064919	-0.626613	-0.270826	0.036509	-0.728840	-0.207927	0.048061	-0.662598	-0.182658	0.036759	-0.674347	
507	2.5350	-0.276713	1.402986	-0.530597	-0.220036	1.380567	-0.723588	-0.241242	1.383566	-0.342510	-0.131268	1.346243	-0.531894	-0.178150	0.882218	-0.419765	-0.189154	0.885037	-0.654827	-0.247069	0.950449	-0.360581	-0.246982	0.942119	-0.699648	-0.353985	0.952026	-0.490721	-0.359461	0.950358	-0.558392	-0.357943	0.950278	-0.526826	-0.234170	0.709350	-0.335864	-0.206930	0.656676	-0.330914	-0.147858	0.684256	-0.337798	-0.169459	0.741215	-0.344940	-0.121269	0.411334	-0.370006	-0.106422	0.408164	-0.481807	-0.237099	0.317230	-0.343226	-0.262162	0.284639	-0.356769	-0.208970	0.255792	-0.363926	-0.188611	0.289505	-0.354978	-0.420234	0.068164	-0.453993	-0.260530	0.035186	-0.374167	-0.202674	0.046388	-0.437934	-0.178252	0.036624	-0.434563	-0.237980	0.684166	-0.740965	-0.207272	0.630991	-0.748018	-0.148738	0.658363	-0.746939	-0.170733	0.714205	-0.739492	-0.126003	0.414246	-0.722805	-0.103971	0.407991	-0.619886	-0.256162	0.312399	-0.734957	-0.279902	0.280477	-0.726471	-0.225363	0.248878	-0.725379	-0.207844	0.288230	-0.734969	-0.421110	0.065143	-0.626413	-0.270807	0.036514	-0.728761	-0.207794	0.048043	-0.662597	-0.182528	0.036769	-0.674408	
508	2.5400	-0.276737	1.400799	-0.530848	-0.219675	1.378593	-0.723840	-0.241324	1.381588	-0.342755	-0.131343	1.343957	-0.532023	-0.178289	0.880161	-0.419926	-0.189233	0.883135	-0.654977	-0.246987	0.948489	-0.360378	-0.247542	0.940163	-0.699708	-0.354151	0.949779	-0.490445	-0.359642	0.947860	-0.558094	-0.357982	0.947844	-0.526467	-0.233287	0.707416	-0.335630	-0.205815	0.654767	-0.331073	-0.146920	0.682546	-0.338353	-0.168716	0.739443	-0.345309	-0.119490	0.409681	-0.370704	-0.105957	0.406783	-0.482880	-0.235447	0.315794	-0.343436	-0.260634	0.283308	-0.356829	-0.207648	0.254370	-0.364608	-0.187101	0.287972	-0.355662	-0.420390	0.067643	-0.453908	-0.260556	0.035211	-0.374138	-0.202769	0.046373	-0.438014	-0.178318	0.036614	-0.434583	-0.237126	0.682366	-0.741073	-0.205893	0.629519	-0.748288	-0.147624	0.657456	-0.746988	-0.170172	0.713066	-0.739394	-0.123711	0.412848	-0.723086	-0.101256	0.406367	-0.620757	-0.254146	0.311221	-0.735302	-0.278096	0.279467	-0.726799	-0.223721	0.247599	-0.725249	-0.205934	0.286816	-0.734930	-0.421027	0.065220	-0.626203	-0.270856	0.036522	-0.728700	-0.207752	0.048034	-0.662594	-0.182493	0.036771	-0.674478	
509	2.5450	-0.276769	1.399008	-0.531094	-0.219370	1.377013	-0.724077	-0.241398	1.379992	-0.342990	-0.131408	1.342046	-0.532153	-0.178292	0.878484	-0.420058	-0.189184	0.881653	-0.655115	-0.246729	0.946973	-0.360292	-0.247867	0.938486	-0.699756	-0.354220	0.947887	-0.490236	-0.359697	0.945709	-0.557860	-0.357878	0.945733	-0.526138	-0.232383	0.705859	-0.335418	-0.204734	0.653198	-0.331183	-0.145995	0.681123	-0.338855	-0.167923	0.737977	-0.345647	-0.117978	0.408224	-0.371328	-0.105789	0.405635	-0.483899	-0.234113	0.314447	-0.343735	-0.259379	0.282078	-0.357016	-0.206560	0.253109	-0.365301	-0.185874	0.286625	-0.356341	-0.420508	0.067199	-0.454043	-0.260602	0.035252	-0.374184	-0.202830	0.046364	-0.438112	-0.178352	0.036610	-0.434603	-0.236368	0.680832	-0.741207	-0.204755	0.628224	-0.748557	-0.146686	0.656570	-0.747162	-0.169633	0.712006	-0.739437	-0.122173	0.411465	-0.723414	-0.099109	0.404710	-0.621653	-0.252664	0.309928	-0.735508	-0.276751	0.278301	-0.726965	-0.222490	0.246254	-0.725071	-0.204528	0.285369	-0.734856	-0.420999	0.065134	-0.625981	-0.270955	0.036535	-0.728658	-0.207777	0.048016	-0.662584	-0.182532	0.036763	-0.674552	
510	2.5500	-0.276815	1.397631	-0.531333	-0.219117	1.375840	-0.724294	-0.241478	1.378792	-0.343222	-0.131449	1.340540	-0.532287	-0.178160	0.877216	-0.420149	-0.189026	0.880582	-0.655230	-0.246369	0.945883	-0.360319	-0.247984	0.937063	-0.699789	-0.354194	0.946383	-0.490112	-0.359620	0.943954	-0.557712	-0.357628	0.943973	-0.525864	-0.231482	0.704671	-0.335232	-0.203714	0.651998	-0.331244	-0.145111	0.680010	-0.339288	-0.167113	0.736833	-0.345949	-0.116742	0.406988	-0.371846	-0.105799	0.404719	-0.484789	-0.233144	0.313263	-0.344130	-0.258405	0.281055	-0.357195	-0.205731	0.252056	-0.365936	-0.184959	0.285506	-0.356964	-0.420585	0.066865	-0.454392	-0.260668	0.035307	-0.374299	-0.202849	0.046356	-0.438219	-0.178354	0.036610	-0.434626	-0.235737	0.679553	-0.741345	-0.203896	0.627083	-0.748792	-0.145948	0.655677	-0.747429	-0.169121	0.711010	-0.739609	-0.121359	0.410135	-0.723782	-0.097559	0.403087	-0.622483	-0.251710	0.308614	-0.735596	-0.275852	0.277067	-0.726983	-0.221646	0.244928	-0.724881	-0.203604	0.283994	-0.734784	-0.421003	0.064945	-0.625760	-0.271073	0.036564	-0.728621	-0.207839	0.048001	-0.662576	-0.182603	0.036754	-0.674633	
